<mxfile host="app.diagrams.net" modified="2023-05-28T22:58:36.690Z" agent="Mozilla/5.0 (X11; Linux x86_64) AppleWebKit/537.36 (KHTML, like Gecko) Chrome/113.0.0.0 Safari/537.36" version="21.3.5" etag="WCUAwt18Gtd6CudeVTDw" type="github">
  <diagram name="Pagina-1" id="gbpUGaTXT32XvDSVAxPq">
    <mxGraphModel>
      <root>
        <mxCell id="0" />
        <mxCell id="1" parent="0" />
      </root>
    </mxGraphModel>
  </diagram>
</mxfile>
